# xmcd
# Track frame offsets:
# 150
# 12395
# 22377
# 32147
# 42737
# 55455
# 64632
# 74152
# 84392
# 94662
# 107225
# 117942
# 128067
# 139482
# 149557
# 158845
# 170550
# 181090
# 192007
# 202290
# 211760
# 219792
# 229890
# 242310
# 249970
# 259822
# 270545
# 282450
# 294217
# 307762
#
# Disc length: 4211 seconds
# Revision: 3
# Processed by: cddbd v1.5.2PL0 Copyright (c) Steve Scherf et al.
# Submitted via: VisiTrax 2.11.3.279 - For more info visit www.synapsa.com
#
DISCID=c610711e
DTITLE=Johnny Cash - His 30 Greatest Hits
DYEAR=1990
DGENRE=Country
TTITLE0=I Walk The Line
TTITLE1=Hey Porter
TTITLE2=Rock Island Line
TTITLE3=Train Of Love
TTITLE4=Folsom Prison Blues
TTITLE5=Blue Train
TTITLE6=Down The Street To 301
TTITLE7=Goodbye Little Darling Goodbye
TTITLE8=The Ways Of A Woman In Love
TTITLE9=Give My Love To Rose
TTITLE10=Cry Cry Cry
TTITLE11=I Could Never Be Ashamed Of You
TTITLE12=Big River
TTITLE13=Get Rhythm
TTITLE14=Luther's Played The Boogie
TTITLE15=You Are The Nearest Thing To Heaven
TTITLE16=Cold Cold Heart
TTITLE17=I Love You Because
TTITLE18=There You Go
TTITLE19=Just About Time
TTITLE20=Sugar Time
TTITLE21=Straight A's In Love
TTITLE22=Next In Line
TTITLE23=Hey Good Lookin'
TTITLE24=Ballad Of A Teenage Queen
TTITLE25=I Just Thought You'd Like To Know
TTITLE26=Home Of The Blues
TTITLE27=So Dog Gone Lonesome
TTITLE28=Don't Take You Guns To Town
TTITLE29=Country Boy
EXTD=JOKER TONVERLAG A.G.
EXTT0=
EXTT1=
EXTT2=
EXTT3=
EXTT4=
EXTT5=
EXTT6=
EXTT7=
EXTT8=
EXTT9=
EXTT10=
EXTT11=
EXTT12=
EXTT13=
EXTT14=
EXTT15=
EXTT16=
EXTT17=
EXTT18=
EXTT19=
EXTT20=
EXTT21=
EXTT22=
EXTT23=
EXTT24=
EXTT25=
EXTT26=
EXTT27=
EXTT28=
EXTT29=
PLAYORDER=
